<?xml version="1.0" encoding="utf-8"?>
<!-- Generator: Adobe Illustrator 25.2.1, SVG Export Plug-In . SVG Version: 6.00 Build 0)  -->
<svg version="1.1" id="Isolation_Mode" xmlns="http://www.w3.org/2000/svg" xmlns:xlink="http://www.w3.org/1999/xlink" x="0px"
	 y="0px" viewBox="0 0 128 128" style="enable-background:new 0 0 128 128;" xml:space="preserve">
<style type="text/css">
	.st0{fill-rule:evenodd;clip-rule:evenodd;fill:#7733FF;}
	.st1{fill-rule:evenodd;clip-rule:evenodd;fill:#FFFFFF;}
</style>
<g>
	<circle class="st0" cx="64" cy="64" r="64"/>
	<g>
		<path class="st1" d="M50.5,45.6c0.1,0.4,0.5,0.6,0.8,0.5l30.5-8.2c0.7-0.2,0.6-1.3-0.1-1.3l-33.5-3c-0.5,0-0.8,0.4-0.7,0.8
			L50.5,45.6z M53.5,65.6L49.1,49l-0.6-2.2L46.1,38c-0.2-0.7-1.1-0.7-1.3,0l-8.5,31.9c-0.1,0.5,0.3,0.9,0.8,0.8l16-4.3
			C53.4,66.3,53.6,66,53.5,65.6z M88.1,38.5c0.9-0.2,2,0.2,2.5,1l8,13.8c0.2,0.4,0,0.9-0.4,1L56.5,65.4c-0.4,0.1-0.7-0.1-0.8-0.5
			l-4.3-16c-0.1-0.4,0.1-0.7,0.5-0.8L88.1,38.5z M54.4,69c-0.1-0.4-0.5-0.6-0.8-0.5l-16,4.3C37.2,73,37,73.6,37.3,74l23.4,23.6
			c0.5,0.5,1.3,0,1.1-0.6L54.4,69z M57,67.6L96.8,57c0.6-0.2,1.1,0.5,0.7,1.1L65.6,98.2c-0.3,0.4-1,0.3-1.2-0.2l-7.9-29.5
			C56.5,68.1,56.7,67.7,57,67.6z"/>
	</g>
</g>
</svg>
