<svg width="42" height="42" viewBox="0 0 42 42" fill="none"
  xmlns="http://www.w3.org/2000/svg">
  <circle cx="21" cy="21" r="20" stroke="black" stroke-opacity="0.1"/>
  <g clip-path="url(#clip0_48_526)">
    <path d="M28.5615 14.055C27.1467 13.4057 25.6539 12.9423 24.1201 12.6764C24.1062 12.674 24.092 12.676 24.0793 12.6821C24.0666 12.6883 24.0561 12.6981 24.0492 12.7105C23.857 13.0514 23.6442 13.4973 23.4956 13.8464C21.8423 13.5955 20.1607 13.5955 18.5074 13.8464C18.3416 13.4575 18.154 13.0782 17.9456 12.7105C17.9386 12.6983 17.9281 12.6885 17.9154 12.6824C17.9028 12.6763 17.8886 12.6742 17.8747 12.6764C16.3406 12.9409 14.8474 13.4045 13.4333 14.055C13.4212 14.0596 13.4111 14.0683 13.4047 14.0795C10.5765 18.3055 9.8006 22.4277 10.1811 26.4982C10.1824 26.5173 10.1947 26.5364 10.2097 26.5486C11.8566 27.7686 13.6987 28.7 15.6574 29.3032C15.6712 29.3075 15.6861 29.3074 15.6998 29.3027C15.7136 29.2981 15.7255 29.2892 15.7338 29.2773C16.1538 28.7045 16.5274 28.1005 16.8492 27.465C16.8559 27.4519 16.8582 27.437 16.8558 27.4225C16.8533 27.408 16.8462 27.3947 16.8356 27.3845C16.8285 27.3779 16.8202 27.3728 16.8111 27.3695C16.2235 27.1438 15.6545 26.8725 15.1092 26.5582C15.094 26.5496 15.0827 26.5354 15.0776 26.5186C15.0725 26.5019 15.0741 26.4838 15.082 26.4682C15.0866 26.458 15.0936 26.4491 15.1024 26.4423C15.217 26.3564 15.3315 26.2664 15.4406 26.1764C15.4502 26.1686 15.4618 26.1636 15.474 26.162C15.4863 26.1603 15.4988 26.162 15.5101 26.1668C19.0815 27.7977 22.9474 27.7977 26.4751 26.1668C26.4869 26.1617 26.4999 26.1599 26.5126 26.1616C26.5253 26.1633 26.5374 26.1684 26.5474 26.1764C26.6565 26.2664 26.7711 26.3564 26.8856 26.4423C26.8949 26.4491 26.9023 26.458 26.9073 26.4684C26.9123 26.4788 26.9146 26.4902 26.914 26.5017C26.9135 26.5132 26.9101 26.5243 26.9042 26.5342C26.8983 26.5441 26.89 26.5523 26.8801 26.5582C26.3361 26.8754 25.7663 27.1463 25.177 27.3682C25.1676 27.3716 25.159 27.377 25.152 27.3841C25.1449 27.3912 25.1395 27.3997 25.1361 27.4091C25.1329 27.4182 25.1316 27.4279 25.1323 27.4375C25.133 27.4471 25.1357 27.4564 25.1401 27.465C25.4674 28.0991 25.8424 28.7045 26.2542 29.2773C26.2626 29.2892 26.2744 29.2981 26.2882 29.3027C26.3019 29.3074 26.3168 29.3075 26.3306 29.3032C28.2926 28.7019 30.1377 27.7703 31.7865 26.5486C31.7948 26.5429 31.8016 26.5354 31.8066 26.5267C31.8115 26.5179 31.8145 26.5082 31.8151 26.4982C32.2706 21.7923 31.0529 17.7041 28.5888 14.0809C28.5863 14.0749 28.5826 14.0695 28.5779 14.0651C28.5732 14.0606 28.5676 14.0572 28.5615 14.055ZM17.3824 24.0191C16.3065 24.0191 15.4215 23.0318 15.4215 21.8209C15.4215 20.6086 16.2901 19.6214 17.3824 19.6214C18.4829 19.6214 19.3597 20.6168 19.3433 21.8209C19.3433 23.0318 18.4747 24.0191 17.3824 24.0191ZM24.6315 24.0191C23.557 24.0191 22.6706 23.0318 22.6706 21.8209C22.6706 20.6086 23.5392 19.6214 24.6315 19.6214C25.732 19.6214 26.6101 20.6168 26.5924 21.8209C26.5924 23.0318 25.732 24.0191 24.6315 24.0191Z" fill="#646465"/>
  </g>
  <defs>
    <clipPath id="clip0_48_526">
      <rect width="21.8182" height="21.8182" fill="white" transform="translate(10.0908 10.0909)"/>
    </clipPath>
  </defs>
</svg>
