<svg width="24" height="24" viewBox="0 0 24 24" fill="none"
  xmlns="http://www.w3.org/2000/svg">
  <g opacity="0.8">
    <path d="M20.2415 5.18566C18.7257 4.49015 17.1003 3.97773 15.4007 3.68425C15.3698 3.67858 15.3389 3.69274 15.3229 3.72105C15.1139 4.09286 14.8823 4.57791 14.7202 4.95916C12.8922 4.6855 11.0736 4.6855 9.28318 4.95916C9.12099 4.56944 8.88103 4.09286 8.67104 3.72105C8.6551 3.69368 8.62418 3.67953 8.59323 3.68425C6.89465 3.97679 5.26918 4.48921 3.75245 5.18566C3.73932 5.19133 3.72807 5.20077 3.7206 5.21303C0.637438 9.8192 -0.207169 14.3122 0.207167 18.7494C0.209041 18.7711 0.221228 18.7919 0.238101 18.8051C2.27228 20.2989 4.24273 21.2058 6.17659 21.807C6.20754 21.8164 6.24034 21.8051 6.26003 21.7796C6.71749 21.1549 7.12527 20.4962 7.4749 19.8035C7.49553 19.7629 7.47584 19.7148 7.43366 19.6988C6.78686 19.4534 6.17097 19.1542 5.57852 18.8145C5.53166 18.7872 5.52791 18.7201 5.57102 18.688C5.69569 18.5946 5.8204 18.4974 5.93944 18.3993C5.96098 18.3814 5.99099 18.3776 6.01631 18.3889C9.90842 20.1659 14.1221 20.1659 17.9683 18.3889C17.9936 18.3766 18.0236 18.3804 18.0461 18.3983C18.1652 18.4965 18.2898 18.5946 18.4154 18.688C18.4585 18.7201 18.4557 18.7872 18.4089 18.8145C17.8164 19.1608 17.2005 19.4534 16.5528 19.6978C16.5106 19.7139 16.4919 19.7629 16.5125 19.8035C16.8696 20.4952 17.2774 21.1539 17.7264 21.7787C17.7452 21.8051 17.7789 21.8164 17.8099 21.807C19.7531 21.2058 21.7235 20.2989 23.7577 18.8051C23.7755 18.7919 23.7868 18.7721 23.7887 18.7504C24.2845 13.6204 22.9581 9.16429 20.2724 5.21397C20.2659 5.20077 20.2546 5.19133 20.2415 5.18566ZM8.05612 16.0476C6.88433 16.0476 5.91881 14.9718 5.91881 13.6506C5.91881 12.3294 6.86561 11.2536 8.05612 11.2536C9.25598 11.2536 10.2122 12.3389 10.1934 13.6506C10.1934 14.9718 9.2466 16.0476 8.05612 16.0476ZM15.9585 16.0476C14.7867 16.0476 13.8212 14.9718 13.8212 13.6506C13.8212 12.3294 14.768 11.2536 15.9585 11.2536C17.1584 11.2536 18.1145 12.3389 18.0958 13.6506C18.0958 14.9718 17.1584 16.0476 15.9585 16.0476Z" fill="#7733FF"/>
  </g>
</svg>
