<svg width="88" height="88" viewBox="0 0 88 88" fill="none"
  xmlns="http://www.w3.org/2000/svg">
  <path fill-rule="evenodd" clip-rule="evenodd" d="M60.5734 22.6667C59.6215 22.6667 59.0287 21.5822 59.3828 20.6986C59.8765 19.467 60.1482 18.1224 60.1482 16.7143C60.1482 10.7969 55.3512 6 49.4339 6C43.5165 6 38.7196 10.7969 38.7196 16.7143C38.7196 18.1224 38.9912 19.467 39.4849 20.6987C39.8391 21.5822 39.2462 22.6667 38.2944 22.6667H26.2381C23.6082 22.6667 21.4762 24.7986 21.4762 27.4286V40.907C21.4762 41.7907 20.5375 42.3773 19.6884 42.1324C18.7441 41.8602 17.7462 41.7143 16.7143 41.7143C10.7969 41.7143 6 46.5112 6 52.4286C6 58.3459 10.7969 63.1429 16.7143 63.1429C17.7462 63.1429 18.7441 62.997 19.6884 62.7247C20.5375 62.4799 21.4762 63.0664 21.4762 63.9501V77.4286C21.4762 80.0585 23.6082 82.1905 26.2381 82.1905H39.3333C39.9908 82.1905 40.5169 81.6554 40.589 81.0019C41.1803 75.6439 45.7225 71.4762 51.2381 71.4762C56.7537 71.4762 61.2959 75.6439 61.8872 81.0019C61.9593 81.6554 62.4854 82.1905 63.1429 82.1905H76.2381C78.868 82.1905 81 80.0585 81 77.4286V64.3333C81 63.6759 80.4649 63.1498 79.8114 63.0777C74.4534 62.4863 70.2857 57.9442 70.2857 52.4286C70.2857 46.913 74.4534 42.3708 79.8114 41.7795C80.4649 41.7073 81 41.1813 81 40.5238V27.4286C81 24.7986 78.868 22.6667 76.2381 22.6667H60.5734Z" stroke="#26C089" stroke-width="4"/>
</svg>
