<svg width="180" height="180" viewBox="0 0 180 180" fill="none"
  xmlns="http://www.w3.org/2000/svg">
  <path d="M109 50.5C97.0001 52.5 4.5001 51.5 25.0001 79C45.5001 106.5 117 110.5 102 120.5C90.0001 128.5 57.0001 139.167 42.0001 143.5" stroke="#26C089" stroke-width="3" stroke-linecap="round"/>
  <path d="M42.5 142C60.8333 136.333 126.5 133.2 122.5 142C117.5 153 135 154 150.5 148C166 142 181 129.5 177 142" stroke="#FF529A" stroke-width="3" stroke-linecap="round"/>
  <rect x="122.075" y="40" width="32" height="109" transform="rotate(45 122.075 40)" fill="#D9D9D9"/>
  <rect x="122.075" y="40" width="6.11912" height="109" transform="rotate(45 122.075 40)" fill="url(#paint0_linear_47_229)"/>
  <rect x="122.075" y="40" width="6.11912" height="109" transform="rotate(45 122.075 40)" fill="url(#paint1_linear_47_229)"/>
  <g filter="url(#filter0_i_47_229)">
    <rect width="19.8993" height="109" transform="matrix(-0.707107 -0.707107 -0.707107 0.707107 140.472 58.3978)" fill="url(#paint2_linear_47_229)"/>
    <rect width="19.8993" height="109" transform="matrix(-0.707107 -0.707107 -0.707107 0.707107 140.472 58.3978)" fill="url(#paint3_linear_47_229)"/>
    <rect width="19.8993" height="109" transform="matrix(-0.707107 -0.707107 -0.707107 0.707107 140.472 58.3978)" fill="url(#paint4_radial_47_229)"/>
  </g>
  <g filter="url(#filter1_i_47_229)">
    <rect x="140.472" y="58.3977" width="6.28012" height="109" transform="rotate(45 140.472 58.3977)" fill="url(#paint5_linear_47_229)"/>
    <rect x="140.472" y="58.3977" width="6.28012" height="109" transform="rotate(45 140.472 58.3977)" fill="url(#paint6_linear_47_229)"/>
  </g>
  <g filter="url(#filter2_i_47_229)">
    <path d="M122.075 40L144.885 62.8101L158.461 49.2337C161.629 46.0655 163.213 44.4815 163.807 42.6548C164.329 41.0481 164.329 39.3173 163.807 37.7106C163.213 35.8839 161.629 34.2999 158.461 31.1317L153.753 26.4236C150.585 23.2554 149.001 21.6713 147.174 21.0778C145.568 20.5558 143.837 20.5558 142.23 21.0778C140.403 21.6713 138.819 23.2554 135.651 26.4235L122.075 40Z" fill="url(#paint7_linear_47_229)"/>
  </g>
  <g filter="url(#filter3_i_47_229)">
    <path d="M122.075 40L144.938 62.8628L147.129 60.671L124.266 37.8082L122.075 40Z" fill="url(#paint8_linear_47_229)"/>
  </g>
  <g filter="url(#filter4_i_47_229)">
    <path d="M126 36.152L148.771 58.9236L147.924 59.7714L125.152 36.9998L126 36.152Z" fill="url(#paint9_linear_47_229)"/>
  </g>
  <mask id="mask0_47_229" style="mask-type:alpha" maskUnits="userSpaceOnUse" x="41" y="117" width="27" height="27">
    <path d="M40.9999 143.702L67.6273 139.702L44.9999 117.075L40.9999 143.702Z" fill="url(#paint10_linear_47_229)"/>
  </mask>
  <g mask="url(#mask0_47_229)">
    <path d="M40.9999 143.702L67.6273 139.702L44.9999 117.075L40.9999 143.702Z" fill="url(#paint11_linear_47_229)"/>
    <path d="M41 143.702L56.6666 150.663L34.0392 128.035L41 143.702Z" fill="url(#paint12_linear_47_229)"/>
  </g>
  <defs>
    <filter id="filter0_i_47_229" x="49.3269" y="44.3269" width="91.1455" height="91.1456" filterUnits="userSpaceOnUse" color-interpolation-filters="sRGB">
      <feFlood flood-opacity="0" result="BackgroundImageFix"/>
      <feBlend mode="normal" in="SourceGraphic" in2="BackgroundImageFix" result="shape"/>
      <feColorMatrix in="SourceAlpha" type="matrix" values="0 0 0 0 0 0 0 0 0 0 0 0 0 0 0 0 0 0 127 0" result="hardAlpha"/>
      <feOffset dx="0.5"/>
      <feComposite in2="hardAlpha" operator="arithmetic" k2="-1" k3="1"/>
      <feColorMatrix type="matrix" values="0 0 0 0 1 0 0 0 0 1 0 0 0 0 1 0 0 0 0.65 0"/>
      <feBlend mode="normal" in2="shape" result="effect1_innerShadow_47_229"/>
    </filter>
    <filter id="filter1_i_47_229" x="63.3977" y="58.3977" width="81.5154" height="81.5154" filterUnits="userSpaceOnUse" color-interpolation-filters="sRGB">
      <feFlood flood-opacity="0" result="BackgroundImageFix"/>
      <feBlend mode="normal" in="SourceGraphic" in2="BackgroundImageFix" result="shape"/>
      <feColorMatrix in="SourceAlpha" type="matrix" values="0 0 0 0 0 0 0 0 0 0 0 0 0 0 0 0 0 0 127 0" result="hardAlpha"/>
      <feOffset dx="0.5"/>
      <feComposite in2="hardAlpha" operator="arithmetic" k2="-1" k3="1"/>
      <feColorMatrix type="matrix" values="0 0 0 0 1 0 0 0 0 1 0 0 0 0 1 0 0 0 0.33 0"/>
      <feBlend mode="normal" in2="shape" result="effect1_innerShadow_47_229"/>
    </filter>
    <filter id="filter2_i_47_229" x="122.075" y="20.6863" width="42.1238" height="42.1238" filterUnits="userSpaceOnUse" color-interpolation-filters="sRGB">
      <feFlood flood-opacity="0" result="BackgroundImageFix"/>
      <feBlend mode="normal" in="SourceGraphic" in2="BackgroundImageFix" result="shape"/>
      <feColorMatrix in="SourceAlpha" type="matrix" values="0 0 0 0 0 0 0 0 0 0 0 0 0 0 0 0 0 0 127 0" result="hardAlpha"/>
      <feOffset dx="0.5" dy="0.5"/>
      <feComposite in2="hardAlpha" operator="arithmetic" k2="-1" k3="1"/>
      <feColorMatrix type="matrix" values="0 0 0 0 1 0 0 0 0 1 0 0 0 0 1 0 0 0 0.37 0"/>
      <feBlend mode="normal" in2="shape" result="effect1_innerShadow_47_229"/>
    </filter>
    <filter id="filter3_i_47_229" x="122.075" y="37.8082" width="25.0547" height="25.0546" filterUnits="userSpaceOnUse" color-interpolation-filters="sRGB">
      <feFlood flood-opacity="0" result="BackgroundImageFix"/>
      <feBlend mode="normal" in="SourceGraphic" in2="BackgroundImageFix" result="shape"/>
      <feColorMatrix in="SourceAlpha" type="matrix" values="0 0 0 0 0 0 0 0 0 0 0 0 0 0 0 0 0 0 127 0" result="hardAlpha"/>
      <feOffset dy="-0.5"/>
      <feComposite in2="hardAlpha" operator="arithmetic" k2="-1" k3="1"/>
      <feColorMatrix type="matrix" values="0 0 0 0 0 0 0 0 0 0 0 0 0 0 0 0 0 0 0.57 0"/>
      <feBlend mode="normal" in2="shape" result="effect1_innerShadow_47_229"/>
    </filter>
    <filter id="filter4_i_47_229" x="125.152" y="36.152" width="23.6196" height="23.6194" filterUnits="userSpaceOnUse" color-interpolation-filters="sRGB">
      <feFlood flood-opacity="0" result="BackgroundImageFix"/>
      <feBlend mode="normal" in="SourceGraphic" in2="BackgroundImageFix" result="shape"/>
      <feColorMatrix in="SourceAlpha" type="matrix" values="0 0 0 0 0 0 0 0 0 0 0 0 0 0 0 0 0 0 127 0" result="hardAlpha"/>
      <feOffset dy="-0.5"/>
      <feComposite in2="hardAlpha" operator="arithmetic" k2="-1" k3="1"/>
      <feColorMatrix type="matrix" values="0 0 0 0 0 0 0 0 0 0 0 0 0 0 0 0 0 0 0.62 0"/>
      <feBlend mode="normal" in2="shape" result="effect1_innerShadow_47_229"/>
    </filter>
    <linearGradient id="paint0_linear_47_229" x1="125.134" y1="40" x2="125.134" y2="149" gradientUnits="userSpaceOnUse">
      <stop stop-color="#C47CFD"/>
      <stop offset="1" stop-color="#DAADFF"/>
    </linearGradient>
    <linearGradient id="paint1_linear_47_229" x1="129.093" y1="84.6005" x2="121.315" y2="84.6005" gradientUnits="userSpaceOnUse">
      <stop stop-color="#C089ED"/>
      <stop offset="1" stop-color="#D9ABFF" stop-opacity="0"/>
    </linearGradient>
    <linearGradient id="paint2_linear_47_229" x1="0.615266" y1="0.0528258" x2="19.3536" y2="107.18" gradientUnits="userSpaceOnUse">
      <stop stop-color="#AA41FF"/>
      <stop offset="1" stop-color="#B262F2"/>
    </linearGradient>
    <linearGradient id="paint3_linear_47_229" x1="19" y1="47.429" x2="-0.798947" y2="47.429" gradientUnits="userSpaceOnUse">
      <stop stop-color="#6D1AAF" stop-opacity="0.36"/>
      <stop offset="1" stop-color="#A347EF" stop-opacity="0"/>
    </linearGradient>
    <radialGradient id="paint4_radial_47_229" cx="0" cy="0" r="1" gradientUnits="userSpaceOnUse" gradientTransform="translate(6.97922 1.46704) rotate(76.6398) scale(58.1421 30.5702)">
      <stop stop-color="#F98C99" stop-opacity="0.22"/>
      <stop offset="1" stop-color="#FC93A1" stop-opacity="0"/>
    </radialGradient>
    <linearGradient id="paint5_linear_47_229" x1="143.612" y1="58.3977" x2="143.612" y2="167.398" gradientUnits="userSpaceOnUse">
      <stop stop-color="#811ED2"/>
      <stop offset="1" stop-color="#B05DF2"/>
    </linearGradient>
    <linearGradient id="paint6_linear_47_229" x1="140.564" y1="98.0485" x2="147.282" y2="98.4021" gradientUnits="userSpaceOnUse">
      <stop stop-color="#7215BE"/>
      <stop offset="1" stop-color="#6E09BE" stop-opacity="0"/>
    </linearGradient>
    <linearGradient id="paint7_linear_47_229" x1="154.192" y1="55.6915" x2="131.521" y2="30.4806" gradientUnits="userSpaceOnUse">
      <stop stop-color="#DEA483"/>
      <stop offset="0.234521" stop-color="#E6535C"/>
      <stop offset="0.450879" stop-color="#FF9EAC"/>
      <stop offset="0.686453" stop-color="#FFC5D6"/>
      <stop offset="0.869179" stop-color="#FFB3D5"/>
      <stop offset="1" stop-color="#FFB1DB"/>
    </linearGradient>
    <linearGradient id="paint8_linear_47_229" x1="146.83" y1="63.1639" x2="138.491" y2="34.5221" gradientUnits="userSpaceOnUse">
      <stop stop-color="#606060"/>
      <stop offset="0.236757" stop-color="#655F5F"/>
      <stop offset="0.793694" stop-color="#DCDCDC"/>
      <stop offset="1" stop-color="#BABABA"/>
    </linearGradient>
    <linearGradient id="paint9_linear_47_229" x1="149.556" y1="60.3235" x2="130.262" y2="63.6298" gradientUnits="userSpaceOnUse">
      <stop stop-color="#606060"/>
      <stop offset="0.236757" stop-color="#655F5F"/>
      <stop offset="0.793694" stop-color="#DCDCDC"/>
      <stop offset="1" stop-color="#BABABA"/>
    </linearGradient>
    <linearGradient id="paint10_linear_47_229" x1="66.4999" y1="141.5" x2="43.4999" y2="118" gradientUnits="userSpaceOnUse">
      <stop stop-color="#626262"/>
      <stop offset="0.13154" stop-color="#ABABAB"/>
      <stop offset="0.735964" stop-color="#DEDEDE"/>
      <stop offset="1" stop-color="#F9F9F9"/>
    </linearGradient>
    <linearGradient id="paint11_linear_47_229" x1="66.4999" y1="141.5" x2="43.4999" y2="118" gradientUnits="userSpaceOnUse">
      <stop stop-color="#9E5555"/>
      <stop offset="0.13154" stop-color="#995A5A"/>
      <stop offset="0.613566" stop-color="#DABABA"/>
      <stop offset="0.764199" stop-color="#ECDADA"/>
      <stop offset="0.871188" stop-color="#F1DFDF"/>
      <stop offset="1" stop-color="#EEE1E1"/>
    </linearGradient>
    <linearGradient id="paint12_linear_47_229" x1="47.4999" y1="145" x2="39.2706" y2="137.214" gradientUnits="userSpaceOnUse">
      <stop stop-color="#989595"/>
      <stop offset="0.362822" stop-color="#6C6C6C"/>
      <stop offset="0.587275" stop-color="#B9B7B7"/>
      <stop offset="0.770782" stop-color="#868585"/>
      <stop offset="1" stop-color="#464646"/>
    </linearGradient>
  </defs>
</svg>
