<svg width="42" height="42" viewBox="0 0 42 42" fill="none"
  xmlns="http://www.w3.org/2000/svg">
  <circle cx="21" cy="21" r="20" fill="#7733FF" fill-opacity="0.1" stroke="#7733FF"/>
  <rect opacity="0.01" x="9" y="9" width="24" height="24" fill="#7733FF"/>
  <path d="M29.6438 14.7801L31.2858 13.2025V12.8569H25.5992L21.5465 22.9926L16.9367 12.8569H10.9742V13.2025L12.892 15.5221C13.0795 15.6935 13.176 15.9453 13.1519 16.1971V25.3123C13.2108 25.6418 13.1063 25.9766 12.876 26.215L10.7144 28.848V29.1882H16.8376V28.8426L14.6786 26.2176C14.4442 25.9796 14.3342 25.6458 14.3813 25.315V17.4293L19.7572 29.1935H20.3813L25.0045 17.4293V26.8016C25.0045 27.048 25.0045 27.0989 24.8438 27.2623L23.1804 28.8775V29.223H31.2483V28.8775L29.6438 27.2998C29.5045 27.1926 29.4322 27.0132 29.4617 26.8391V15.2409C29.4334 15.0655 29.5033 14.8888 29.6438 14.7801Z" fill="#7733FF"/>
</svg>
