<svg width="24" height="24" viewBox="0 0 24 24" fill="none"
  xmlns="http://www.w3.org/2000/svg">
  <g opacity="0.8">
    <path d="M13.5374 12.2277C13.5374 15.9984 10.5069 19.0552 6.76884 19.0552C3.03073 19.0552 0 15.9977 0 12.2277C0 8.45767 3.0305 5.39999 6.76884 5.39999C10.5072 5.39999 13.5374 8.45698 13.5374 12.2277Z" fill="#7733FF"/>
    <path d="M20.9627 12.2277C20.9627 15.777 19.4474 18.6554 17.5783 18.6554C15.7091 18.6554 14.1938 15.777 14.1938 12.2277C14.1938 8.67836 15.7089 5.79993 17.578 5.79993C19.4472 5.79993 20.9625 8.67744 20.9625 12.2277" fill="#7733FF"/>
    <path d="M24 12.2277C24 15.407 23.4672 17.986 22.8097 17.986C22.1522 17.986 21.6196 15.4077 21.6196 12.2277C21.6196 9.04769 22.1525 6.46945 22.8097 6.46945C23.467 6.46945 24 9.04746 24 12.2277Z" fill="#7733FF"/>
  </g>
</svg>
