<svg width="42" height="42" viewBox="0 0 42 42" fill="none"
  xmlns="http://www.w3.org/2000/svg">
  <rect opacity="0.01" x="9" y="9" width="24" height="24" fill="black"/>
  <path d="M32.3466 13.9634C31.7041 14.9042 30.9266 15.7057 30.014 16.3677C30.0238 16.5016 30.0287 16.7031 30.0287 16.9721C30.0287 18.2199 29.8463 19.4647 29.4815 20.7064C29.1167 21.9483 28.5627 23.1403 27.8197 24.2825C27.0766 25.4247 26.1915 26.435 25.1647 27.3131C24.1379 28.1914 22.8998 28.8921 21.4504 29.4153C20.0011 29.9385 18.4516 30.2003 16.802 30.2003C14.2017 30.2003 11.8219 29.5044 9.6626 28.1128C9.99787 28.1509 10.3719 28.1699 10.7847 28.1699C12.944 28.1699 14.8681 27.5079 16.557 26.1838C15.5498 26.1642 14.6476 25.8547 13.8505 25.2552C13.0533 24.656 12.5061 23.8907 12.2088 22.9598C12.5257 23.0076 12.8186 23.0316 13.0876 23.0316C13.5004 23.0316 13.9081 22.9787 14.3111 22.873C13.2363 22.652 12.3464 22.1171 11.6414 21.2684C10.9364 20.4197 10.5839 19.434 10.5839 18.3114V18.2542C11.2361 18.619 11.9368 18.8156 12.6861 18.8439C12.0523 18.4214 11.5486 17.8699 11.1752 17.1894C10.8018 16.509 10.6144 15.7702 10.6133 14.9731C10.6133 14.128 10.8245 13.3463 11.2471 12.6277C12.4079 14.0574 13.8209 15.2015 15.4865 16.0601C17.152 16.9186 18.9343 17.3958 20.8332 17.4916C20.7571 17.1268 20.719 16.7718 20.719 16.4267C20.719 15.1407 21.1722 14.0445 22.0787 13.138C22.9852 12.2316 24.0814 11.7784 25.3674 11.7784C26.7112 11.7784 27.8436 12.2679 28.7648 13.2467C29.8114 13.0453 30.7952 12.6713 31.7163 12.1247C31.3614 13.2277 30.6803 14.082 29.6731 14.6875C30.5661 14.5917 31.4584 14.3516 32.3501 13.9671L32.3466 13.9634Z" fill="#646465"/>
  <circle cx="21" cy="21" r="20" stroke="#646465" stroke-opacity="0.1"/>
</svg>
