<svg width="24" height="24" viewBox="0 0 24 24" fill="none"
  xmlns="http://www.w3.org/2000/svg">
  <g opacity="0.5">
    <path d="M21.0571 7.18075C21.0664 7.39195 21.0664 7.59355 21.0664 7.80475C21.0756 14.208 16.3712 21.6 7.76793 21.6C5.23048 21.6 2.73933 20.8416 0.600098 19.4208C0.970528 19.4688 1.34096 19.488 1.71139 19.488C3.81358 19.488 5.86021 18.7584 7.51789 17.4048C5.51756 17.3664 3.75802 16.0128 3.14681 14.0352C3.85063 14.1792 4.57297 14.1504 5.25826 13.9488C3.08198 13.5072 1.51691 11.52 1.50765 9.20635C1.50765 9.18715 1.50765 9.16795 1.50765 9.14875C2.15591 9.52316 2.88751 9.73436 3.62837 9.75356C1.58174 8.33275 0.942746 5.50074 2.18369 3.28314C4.5637 6.31675 8.06427 8.15035 11.8241 8.35195C11.4445 6.67195 11.9631 4.90554 13.1762 3.71514C15.0562 1.88153 18.0196 1.97753 19.7977 3.92634C20.8441 3.71514 21.8535 3.31194 22.7704 2.74553C22.4185 3.86874 21.6869 4.81914 20.7145 5.42394C21.6406 5.30874 22.5481 5.04954 23.4001 4.66554C22.7704 5.64474 21.9739 6.48955 21.0571 7.18075Z" fill="black"/>
  </g>
</svg>
